{
    "asset" : {
        "generator" : "Khronos glTF Blender I/O v1.7.33",
        "version" : "2.0"
    },
    "scene" : 0,
    "scenes" : [
        {
            "name" : "Scene",
            "nodes" : [
                0,
                1
            ]
        }
    ],
    "nodes" : [
        {
            "mesh" : 0,
            "name" : "Cube.001"
        },
        {
            "mesh" : 1,
            "name" : "Cylinder.001",
            "rotation" : [
                0,
                0.866025447845459,
                0,
                0.4999999701976776
            ]
        }
    ],
    "materials" : [
        {
            "doubleSided" : true,
            "name" : "Material.004",
            "pbrMetallicRoughness" : {
                "baseColorFactor" : [
                    0.8140411972999573,
                    0.48522821068763733,
                    0.15197227895259857,
                    1
                ],
                "metallicFactor" : 0,
                "roughnessFactor" : 0.5
            }
        },
        {
            "doubleSided" : true,
            "name" : "Material.005",
            "pbrMetallicRoughness" : {
                "baseColorFactor" : [
                    0.6266624331474304,
                    0.3527650237083435,
                    0.13164743781089783,
                    1
                ],
                "metallicFactor" : 0,
                "roughnessFactor" : 0.5
            }
        }
    ],
    "meshes" : [
        {
            "name" : "Cube.007",
            "primitives" : [
                {
                    "attributes" : {
                        "POSITION" : 0,
                        "NORMAL" : 1,
                        "TEXCOORD_0" : 2
                    },
                    "indices" : 3,
                    "material" : 0
                }
            ]
        },
        {
            "name" : "Cylinder.003",
            "primitives" : [
                {
                    "attributes" : {
                        "POSITION" : 4,
                        "NORMAL" : 5,
                        "TEXCOORD_0" : 6
                    },
                    "indices" : 7,
                    "material" : 1
                }
            ]
        }
    ],
    "accessors" : [
        {
            "bufferView" : 0,
            "componentType" : 5126,
            "count" : 9216,
            "max" : [
                0.2616220712661743,
                2.0591061115264893,
                0.2656579911708832
            ],
            "min" : [
                -0.2616220712661743,
                0.8497572541236877,
                -0.25340235233306885
            ],
            "type" : "VEC3"
        },
        {
            "bufferView" : 1,
            "componentType" : 5126,
            "count" : 9216,
            "type" : "VEC3"
        },
        {
            "bufferView" : 2,
            "componentType" : 5126,
            "count" : 9216,
            "type" : "VEC2"
        },
        {
            "bufferView" : 3,
            "componentType" : 5123,
            "count" : 13824,
            "type" : "SCALAR"
        },
        {
            "bufferView" : 4,
            "componentType" : 5126,
            "count" : 36,
            "max" : [
                0.021650642156600952,
                2,
                0.025000005960464478
            ],
            "min" : [
                -0.021650642156600952,
                0,
                -0.025000005960464478
            ],
            "type" : "VEC3"
        },
        {
            "bufferView" : 5,
            "componentType" : 5126,
            "count" : 36,
            "type" : "VEC3"
        },
        {
            "bufferView" : 6,
            "componentType" : 5126,
            "count" : 36,
            "type" : "VEC2"
        },
        {
            "bufferView" : 7,
            "componentType" : 5123,
            "count" : 60,
            "type" : "SCALAR"
        }
    ],
    "bufferViews" : [
        {
            "buffer" : 0,
            "byteLength" : 110592,
            "byteOffset" : 0
        },
        {
            "buffer" : 0,
            "byteLength" : 110592,
            "byteOffset" : 110592
        },
        {
            "buffer" : 0,
            "byteLength" : 73728,
            "byteOffset" : 221184
        },
        {
            "buffer" : 0,
            "byteLength" : 27648,
            "byteOffset" : 294912
        },
        {
            "buffer" : 0,
            "byteLength" : 432,
            "byteOffset" : 322560
        },
        {
            "buffer" : 0,
            "byteLength" : 432,
            "byteOffset" : 322992
        },
        {
            "buffer" : 0,
            "byteLength" : 288,
            "byteOffset" : 323424
        },
        {
            "buffer" : 0,
            "byteLength" : 120,
            "byteOffset" : 323712
        }
    ],
    "buffers" : [
        {
            "byteLength" : 323832,
            "uri" : "data:application/octet-stream;base64,"
        }
    ]
}
