{
    "asset" : {
        "generator" : "Khronos glTF Blender I/O v1.7.33",
        "version" : "2.0"
    },
    "scene" : 0,
    "scenes" : [
        {
            "name" : "Scene",
            "nodes" : [
                0,
                1,
                2,
                3,
                4,
                5,
                6,
                7
            ]
        }
    ],
    "nodes" : [
        {
            "mesh" : 0,
            "name" : "Cylinder"
        },
        {
            "mesh" : 1,
            "name" : "Cylinder.001",
            "translation" : [
                0,
                0,
                -2
            ]
        },
        {
            "mesh" : 2,
            "name" : "Cylinder.002",
            "translation" : [
                2,
                0,
                0
            ]
        },
        {
            "mesh" : 3,
            "name" : "Cylinder.003",
            "translation" : [
                2,
                0,
                -2
            ]
        },
        {
            "mesh" : 4,
            "name" : "Cylinder.004",
            "rotation" : [
                0,
                0,
                0.6792556047439575,
                0.733901858329773
            ],
            "scale" : [
                0.5,
                5.5,
                0.5
            ],
            "translation" : [
                5.23176383972168,
                0.4458164572715759,
                0.25
            ]
        },
        {
            "mesh" : 5,
            "name" : "Cylinder.005",
            "rotation" : [
                0.4825659394264221,
                0.5168462991714478,
                0.4825659394264221,
                0.5168462991714478
            ],
            "scale" : [
                0.5,
                5.5,
                0.5
            ],
            "translation" : [
                5.23176383972168,
                0.4458164572715759,
                -5.234058380126953
            ]
        },
        {
            "mesh" : 6,
            "name" : "Cylinder.006",
            "rotation" : [
                0.6824513077735901,
                0.7309310436248779,
                0,
                -2.225718276349653e-07
            ],
            "scale" : [
                0.5,
                5.5,
                0.5
            ],
            "translation" : [
                -0.23406767845153809,
                0.4458164572715759,
                -5.234058380126953
            ]
        },
        {
            "mesh" : 7,
            "name" : "Cylinder.007",
            "rotation" : [
                0.48256585001945496,
                0.5168461799621582,
                -0.48256614804267883,
                -0.5168465375900269
            ],
            "scale" : [
                0.5,
                5.5,
                0.5
            ],
            "translation" : [
                -0.23406767845153809,
                0.4458164572715759,
                0.24088668823242188
            ]
        }
    ],
    "materials" : [
        {
            "doubleSided" : true,
            "name" : "Material.001",
            "pbrMetallicRoughness" : {
                "baseColorFactor" : [
                    0.3931141793727875,
                    0.2233833223581314,
                    0.08524203300476074,
                    1
                ],
                "metallicFactor" : 0,
                "roughnessFactor" : 0.5
            }
        }
    ],
    "meshes" : [
        {
            "name" : "Cylinder",
            "primitives" : [
                {
                    "attributes" : {
                        "POSITION" : 0,
                        "NORMAL" : 1,
                        "TEXCOORD_0" : 2
                    },
                    "indices" : 3,
                    "material" : 0
                }
            ]
        },
        {
            "name" : "Cylinder.001",
            "primitives" : [
                {
                    "attributes" : {
                        "POSITION" : 4,
                        "NORMAL" : 5,
                        "TEXCOORD_0" : 6
                    },
                    "indices" : 3,
                    "material" : 0
                }
            ]
        },
        {
            "name" : "Cylinder.002",
            "primitives" : [
                {
                    "attributes" : {
                        "POSITION" : 7,
                        "NORMAL" : 8,
                        "TEXCOORD_0" : 9
                    },
                    "indices" : 3,
                    "material" : 0
                }
            ]
        },
        {
            "name" : "Cylinder.003",
            "primitives" : [
                {
                    "attributes" : {
                        "POSITION" : 10,
                        "NORMAL" : 11,
                        "TEXCOORD_0" : 12
                    },
                    "indices" : 3,
                    "material" : 0
                }
            ]
        },
        {
            "name" : "Cylinder.004",
            "primitives" : [
                {
                    "attributes" : {
                        "POSITION" : 13,
                        "NORMAL" : 14,
                        "TEXCOORD_0" : 15
                    },
                    "indices" : 3,
                    "material" : 0
                }
            ]
        },
        {
            "name" : "Cylinder.005",
            "primitives" : [
                {
                    "attributes" : {
                        "POSITION" : 16,
                        "NORMAL" : 17,
                        "TEXCOORD_0" : 18
                    },
                    "indices" : 3,
                    "material" : 0
                }
            ]
        },
        {
            "name" : "Cylinder.006",
            "primitives" : [
                {
                    "attributes" : {
                        "POSITION" : 19,
                        "NORMAL" : 20,
                        "TEXCOORD_0" : 21
                    },
                    "indices" : 3,
                    "material" : 0
                }
            ]
        },
        {
            "name" : "Cylinder.007",
            "primitives" : [
                {
                    "attributes" : {
                        "POSITION" : 22,
                        "NORMAL" : 23,
                        "TEXCOORD_0" : 24
                    },
                    "indices" : 3,
                    "material" : 0
                }
            ]
        }
    ],
    "accessors" : [
        {
            "bufferView" : 0,
            "componentType" : 5126,
            "count" : 36,
            "max" : [
                0.15541933476924896,
                1,
                0.17946277558803558
            ],
            "min" : [
                -0.15541933476924896,
                0,
                -0.17946277558803558
            ],
            "type" : "VEC3"
        },
        {
            "bufferView" : 1,
            "componentType" : 5126,
            "count" : 36,
            "type" : "VEC3"
        },
        {
            "bufferView" : 2,
            "componentType" : 5126,
            "count" : 36,
            "type" : "VEC2"
        },
        {
            "bufferView" : 3,
            "componentType" : 5123,
            "count" : 60,
            "type" : "SCALAR"
        },
        {
            "bufferView" : 4,
            "componentType" : 5126,
            "count" : 36,
            "max" : [
                0.15541933476924896,
                1,
                -2.8205373287200928
            ],
            "min" : [
                -0.15541933476924896,
                0,
                -3.1794626712799072
            ],
            "type" : "VEC3"
        },
        {
            "bufferView" : 5,
            "componentType" : 5126,
            "count" : 36,
            "type" : "VEC3"
        },
        {
            "bufferView" : 6,
            "componentType" : 5126,
            "count" : 36,
            "type" : "VEC2"
        },
        {
            "bufferView" : 7,
            "componentType" : 5126,
            "count" : 36,
            "max" : [
                3.15541934967041,
                1,
                0.17946277558803558
            ],
            "min" : [
                2.84458065032959,
                0,
                -0.17946277558803558
            ],
            "type" : "VEC3"
        },
        {
            "bufferView" : 8,
            "componentType" : 5126,
            "count" : 36,
            "type" : "VEC3"
        },
        {
            "bufferView" : 9,
            "componentType" : 5126,
            "count" : 36,
            "type" : "VEC2"
        },
        {
            "bufferView" : 10,
            "componentType" : 5126,
            "count" : 36,
            "max" : [
                3.15541934967041,
                1,
                -2.8205373287200928
            ],
            "min" : [
                2.84458065032959,
                0,
                -3.1794626712799072
            ],
            "type" : "VEC3"
        },
        {
            "bufferView" : 11,
            "componentType" : 5126,
            "count" : 36,
            "type" : "VEC3"
        },
        {
            "bufferView" : 12,
            "componentType" : 5126,
            "count" : 36,
            "type" : "VEC2"
        },
        {
            "bufferView" : 13,
            "componentType" : 5126,
            "count" : 36,
            "max" : [
                0.15541933476924896,
                1,
                0.17946277558803558
            ],
            "min" : [
                -0.15541933476924896,
                0,
                -0.17946277558803558
            ],
            "type" : "VEC3"
        },
        {
            "bufferView" : 14,
            "componentType" : 5126,
            "count" : 36,
            "type" : "VEC3"
        },
        {
            "bufferView" : 15,
            "componentType" : 5126,
            "count" : 36,
            "type" : "VEC2"
        },
        {
            "bufferView" : 16,
            "componentType" : 5126,
            "count" : 36,
            "max" : [
                0.15541933476924896,
                1,
                0.17946277558803558
            ],
            "min" : [
                -0.15541933476924896,
                0,
                -0.17946277558803558
            ],
            "type" : "VEC3"
        },
        {
            "bufferView" : 17,
            "componentType" : 5126,
            "count" : 36,
            "type" : "VEC3"
        },
        {
            "bufferView" : 18,
            "componentType" : 5126,
            "count" : 36,
            "type" : "VEC2"
        },
        {
            "bufferView" : 19,
            "componentType" : 5126,
            "count" : 36,
            "max" : [
                0.15541933476924896,
                1,
                0.17946277558803558
            ],
            "min" : [
                -0.15541933476924896,
                0,
                -0.17946277558803558
            ],
            "type" : "VEC3"
        },
        {
            "bufferView" : 20,
            "componentType" : 5126,
            "count" : 36,
            "type" : "VEC3"
        },
        {
            "bufferView" : 21,
            "componentType" : 5126,
            "count" : 36,
            "type" : "VEC2"
        },
        {
            "bufferView" : 22,
            "componentType" : 5126,
            "count" : 36,
            "max" : [
                0.15541933476924896,
                1,
                0.17946277558803558
            ],
            "min" : [
                -0.15541933476924896,
                0,
                -0.17946277558803558
            ],
            "type" : "VEC3"
        },
        {
            "bufferView" : 23,
            "componentType" : 5126,
            "count" : 36,
            "type" : "VEC3"
        },
        {
            "bufferView" : 24,
            "componentType" : 5126,
            "count" : 36,
            "type" : "VEC2"
        }
    ],
    "bufferViews" : [
        {
            "buffer" : 0,
            "byteLength" : 432,
            "byteOffset" : 0
        },
        {
            "buffer" : 0,
            "byteLength" : 432,
            "byteOffset" : 432
        },
        {
            "buffer" : 0,
            "byteLength" : 288,
            "byteOffset" : 864
        },
        {
            "buffer" : 0,
            "byteLength" : 120,
            "byteOffset" : 1152
        },
        {
            "buffer" : 0,
            "byteLength" : 432,
            "byteOffset" : 1272
        },
        {
            "buffer" : 0,
            "byteLength" : 432,
            "byteOffset" : 1704
        },
        {
            "buffer" : 0,
            "byteLength" : 288,
            "byteOffset" : 2136
        },
        {
            "buffer" : 0,
            "byteLength" : 432,
            "byteOffset" : 2424
        },
        {
            "buffer" : 0,
            "byteLength" : 432,
            "byteOffset" : 2856
        },
        {
            "buffer" : 0,
            "byteLength" : 288,
            "byteOffset" : 3288
        },
        {
            "buffer" : 0,
            "byteLength" : 432,
            "byteOffset" : 3576
        },
        {
            "buffer" : 0,
            "byteLength" : 432,
            "byteOffset" : 4008
        },
        {
            "buffer" : 0,
            "byteLength" : 288,
            "byteOffset" : 4440
        },
        {
            "buffer" : 0,
            "byteLength" : 432,
            "byteOffset" : 4728
        },
        {
            "buffer" : 0,
            "byteLength" : 432,
            "byteOffset" : 5160
        },
        {
            "buffer" : 0,
            "byteLength" : 288,
            "byteOffset" : 5592
        },
        {
            "buffer" : 0,
            "byteLength" : 432,
            "byteOffset" : 5880
        },
        {
            "buffer" : 0,
            "byteLength" : 432,
            "byteOffset" : 6312
        },
        {
            "buffer" : 0,
            "byteLength" : 288,
            "byteOffset" : 6744
        },
        {
            "buffer" : 0,
            "byteLength" : 432,
            "byteOffset" : 7032
        },
        {
            "buffer" : 0,
            "byteLength" : 432,
            "byteOffset" : 7464
        },
        {
            "buffer" : 0,
            "byteLength" : 288,
            "byteOffset" : 7896
        },
        {
            "buffer" : 0,
            "byteLength" : 432,
            "byteOffset" : 8184
        },
        {
            "buffer" : 0,
            "byteLength" : 432,
            "byteOffset" : 8616
        },
        {
            "buffer" : 0,
            "byteLength" : 288,
            "byteOffset" : 9048
        }
    ],
    "buffers" : [
        {
            "byteLength" : 9336,
            "uri" : "data:application/octet-stream;base64,"
        }
    ]
}
