{
    "asset" : {
        "generator" : "Khronos glTF Blender I/O v1.7.33",
        "version" : "2.0"
    },
    "scene" : 0,
    "scenes" : [
        {
            "name" : "Scene",
            "nodes" : [
                0
            ]
        }
    ],
    "nodes" : [
        {
            "mesh" : 0,
            "name" : "Top",
            "rotation" : [
                -0.030700478702783585,
                0.9779047966003418,
                0.010450562462210655,
                -0.2065199315547943
            ],
            "scale" : [
                7.849450588226318,
                8.15285587310791,
                7.849445343017578
            ],
            "translation" : [
                -0.004866551607847214,
                20.028656005859375,
                0.08732208609580994
            ]
        }
    ],
    "materials" : [
        {
            "doubleSided" : true,
            "name" : "Material.002",
            "pbrMetallicRoughness" : {
                "baseColorFactor" : [
                    0.048965148627758026,
                    0.13758359849452972,
                    0.02958492748439312,
                    1
                ],
                "metallicFactor" : 0,
                "roughnessFactor" : 0.5
            }
        },
        {
            "doubleSided" : true,
            "name" : "Material.001",
            "pbrMetallicRoughness" : {
                "baseColorFactor" : [
                    0.23955202102661133,
                    0.09018924832344055,
                    0.05678141489624977,
                    1
                ],
                "metallicFactor" : 0,
                "roughnessFactor" : 0.5
            }
        }
    ],
    "meshes" : [
        {
            "name" : "Cylinder.007",
            "primitives" : [
                {
                    "attributes" : {
                        "POSITION" : 0,
                        "NORMAL" : 1,
                        "TEXCOORD_0" : 2
                    },
                    "indices" : 3,
                    "material" : 0
                },
                {
                    "attributes" : {
                        "POSITION" : 4,
                        "NORMAL" : 5,
                        "TEXCOORD_0" : 6
                    },
                    "indices" : 7,
                    "material" : 1
                }
            ]
        }
    ],
    "accessors" : [
        {
            "bufferView" : 0,
            "componentType" : 5126,
            "count" : 584,
            "max" : [
                0.8833078742027283,
                1.0000005960464478,
                0.7743066549301147
            ],
            "min" : [
                -0.7112783789634705,
                -1.7899744510650635,
                -0.7019813656806946
            ],
            "type" : "VEC3"
        },
        {
            "bufferView" : 1,
            "componentType" : 5126,
            "count" : 584,
            "type" : "VEC3"
        },
        {
            "bufferView" : 2,
            "componentType" : 5126,
            "count" : 584,
            "type" : "VEC2"
        },
        {
            "bufferView" : 3,
            "componentType" : 5123,
            "count" : 1128,
            "type" : "SCALAR"
        },
        {
            "bufferView" : 4,
            "componentType" : 5126,
            "count" : 34,
            "max" : [
                0.45483309030532837,
                -1.616062045097351,
                0.32108622789382935
            ],
            "min" : [
                -0.1771577000617981,
                -2.471435546875,
                -0.2614266276359558
            ],
            "type" : "VEC3"
        },
        {
            "bufferView" : 5,
            "componentType" : 5126,
            "count" : 34,
            "type" : "VEC3"
        },
        {
            "bufferView" : 6,
            "componentType" : 5126,
            "count" : 34,
            "type" : "VEC2"
        },
        {
            "bufferView" : 7,
            "componentType" : 5123,
            "count" : 60,
            "type" : "SCALAR"
        }
    ],
    "bufferViews" : [
        {
            "buffer" : 0,
            "byteLength" : 7008,
            "byteOffset" : 0
        },
        {
            "buffer" : 0,
            "byteLength" : 7008,
            "byteOffset" : 7008
        },
        {
            "buffer" : 0,
            "byteLength" : 4672,
            "byteOffset" : 14016
        },
        {
            "buffer" : 0,
            "byteLength" : 2256,
            "byteOffset" : 18688
        },
        {
            "buffer" : 0,
            "byteLength" : 408,
            "byteOffset" : 20944
        },
        {
            "buffer" : 0,
            "byteLength" : 408,
            "byteOffset" : 21352
        },
        {
            "buffer" : 0,
            "byteLength" : 272,
            "byteOffset" : 21760
        },
        {
            "buffer" : 0,
            "byteLength" : 120,
            "byteOffset" : 22032
        }
    ],
    "buffers" : [
        {
            "byteLength" : 22152,
            "uri" : "data:application/octet-stream;base64,"
        }
    ]
}
